<mxfile host="app.diagrams.net" modified="2023-05-18T11:14:35.997Z" agent="Mozilla/5.0 (Windows NT 10.0; Win64; x64) AppleWebKit/537.36 (KHTML, like Gecko) Chrome/113.0.0.0 Safari/537.36" version="21.3.2" etag="Jjcte2WxXQr90gEK2m2k" type="github">
  <diagram name="Страница 1" id="z_4evVYkZZ9I4RE_M2Rw">
    <mxGraphModel>
      <root>
        <mxCell id="0" />
        <mxCell id="1" parent="0" />
      </root>
    </mxGraphModel>
  </diagram>
</mxfile>
